<?xml version="1.0" standalone="no"?>
<!DOCTYPE svg PUBLIC "-//W3C//DTD SVG 20010904//EN"
 "http://www.w3.org/TR/2001/REC-SVG-20010904/DTD/svg10.dtd">
<svg version="1.0" xmlns="http://www.w3.org/2000/svg"
 width="700.000000pt" height="700.000000pt" viewBox="0 0 700.000000 700.000000"
 preserveAspectRatio="xMidYMid meet">
<metadata>
Created by potrace 1.14, written by Peter Selinger 2001-2017
</metadata>
<g transform="translate(0.000000,700.000000) scale(0.100000,-0.100000)"
fill="#000000" stroke="none">
<path d="M3345 6702 c-538 -57 -1005 -334 -1297 -769 -154 -229 -251 -490
-285 -765 -14 -111 -7 -405 11 -498 9 -47 18 -94 20 -105 7 -35 54 -189 74
-241 21 -52 95 -205 115 -239 120 -197 241 -339 397 -469 111 -92 164 -128
313 -210 129 -72 411 -162 572 -183 112 -15 432 -8 535 10 698 128 1244 646
1406 1336 8 36 18 86 21 111 3 25 9 65 13 90 9 47 6 366 -3 410 -3 14 -8 47
-12 74 -31 230 -170 550 -330 761 -125 165 -344 359 -509 452 -99 56 -185 97
-266 128 -86 33 -261 80 -332 90 -21 3 -55 8 -75 11 -41 7 -320 12 -368 6z
m304 -587 c119 -16 230 -48 335 -95 50 -23 167 -89 176 -99 3 -4 18 -15 34
-25 16 -10 70 -58 119 -105 186 -180 305 -415 341 -674 32 -240 -5 -462 -114
-682 -60 -120 -130 -215 -230 -313 -66 -64 -207 -172 -225 -172 -4 0 -19 -8
-33 -18 -68 -48 -273 -114 -399 -129 -76 -10 -255 -9 -318 0 -385 59 -709 295
-883 642 -28 57 -76 191 -88 245 -52 247 -35 479 52 697 82 207 243 410 421
531 131 89 331 171 458 189 17 2 55 7 85 11 59 9 196 7 269 -3z"/>
<path d="M1785 3199 c-103 -13 -264 -63 -363 -113 -366 -185 -595 -518 -646
-938 -3 -27 -9 -69 -12 -95 -3 -27 -7 -59 -9 -73 -2 -14 -7 -52 -11 -85 -3
-33 -8 -68 -9 -77 -2 -9 -7 -48 -10 -85 -4 -37 -9 -76 -11 -87 -2 -10 -6 -44
-9 -75 -4 -31 -8 -63 -10 -71 -2 -8 -7 -46 -11 -85 -3 -38 -10 -95 -14 -125
-11 -80 -9 -217 5 -278 7 -29 13 -56 14 -60 41 -194 189 -400 371 -517 114
-74 189 -103 338 -133 51 -10 4144 -9 4211 1 354 55 639 338 715 707 14 69 16
265 3 325 -3 11 -8 49 -12 85 -4 36 -9 73 -11 83 -2 10 -6 45 -9 78 -4 33 -8
68 -10 78 -2 9 -6 44 -10 76 -4 33 -8 71 -10 85 -2 14 -7 48 -10 75 -10 80
-16 128 -20 155 -2 14 -7 51 -10 83 -45 474 -355 868 -800 1016 -129 42 -238
58 -400 57 -158 -1 -198 -13 -268 -81 -59 -58 -81 -108 -84 -198 -4 -127 50
-218 163 -273 44 -22 68 -25 179 -29 71 -2 151 -9 179 -15 87 -20 195 -80 266
-146 126 -120 173 -233 195 -474 3 -36 8 -72 10 -80 2 -8 6 -40 10 -70 3 -30
7 -73 10 -95 9 -72 26 -199 30 -230 20 -144 38 -310 38 -355 1 -107 -68 -210
-173 -259 l-55 -25 -2025 -1 -2025 0 -55 27 c-66 31 -98 59 -132 113 -43 70
-49 114 -34 251 7 56 10 83 20 157 3 17 8 57 11 87 3 30 7 66 10 80 2 14 7 50
10 80 4 30 8 71 11 90 3 19 7 53 9 75 4 35 14 114 31 240 12 90 17 112 34 162
62 177 233 331 417 373 28 6 109 13 179 15 112 3 132 7 180 30 220 108 219
418 -2 526 -43 21 -64 24 -179 25 -71 1 -161 -3 -200 -7z"/>
</g>
</svg>
